<svg width="256" height="256" viewBox="0 0 256 256" fill="none" xmlns="http://www.w3.org/2000/svg">
  <defs>
    <linearGradient id="bg" x1="0%" y1="0%" x2="100%" y2="100%">
      <stop offset="0%" style="stop-color:#667eea"/>
      <stop offset="100%" style="stop-color:#764ba2"/>
    </linearGradient>
  </defs>
  
  <!-- Fondo -->
  <rect width="256" height="256" rx="32" fill="url(#bg)"/>
  
  <!-- Calculadora -->
  <rect x="64" y="48" width="128" height="160" rx="12" fill="white" opacity="0.95"/>
  
  <!-- Pantalla -->
  <rect x="76" y="60" width="104" height="32" rx="4" fill="#1a1a2e"/>
  <text x="128" y="80" text-anchor="middle" fill="white" font-family="Arial" font-size="12" font-weight="bold">€ 15,50</text>
  
  <!-- Botones -->
  <circle cx="88" cy="112" r="8" fill="#667eea" opacity="0.8"/>
  <circle cx="112" cy="112" r="8" fill="#667eea" opacity="0.8"/>
  <circle cx="136" cy="112" r="8" fill="#667eea" opacity="0.8"/>
  <circle cx="160" cy="112" r="8" fill="#667eea" opacity="0.8"/>
  
  <circle cx="88" cy="136" r="8" fill="#667eea" opacity="0.6"/>
  <circle cx="112" cy="136" r="8" fill="#667eea" opacity="0.6"/>
  <circle cx="136" cy="136" r="8" fill="#667eea" opacity="0.6"/>
  <circle cx="160" cy="136" r="8" fill="#667eea" opacity="0.6"/>
  
  <circle cx="88" cy="160" r="8" fill="#667eea" opacity="0.4"/>
  <circle cx="112" cy="160" r="8" fill="#667eea" opacity="0.4"/>
  <circle cx="136" cy="160" r="8" fill="#667eea" opacity="0.4"/>
  <circle cx="160" cy="160" r="8" fill="#667eea" opacity="0.4"/>
  
  <circle cx="88" cy="184" r="8" fill="#667eea" opacity="0.2"/>
  <rect x="104" y="176" width="40" height="16" rx="8" fill="#4CAF50"/>
  <text x="124" y="187" text-anchor="middle" fill="white" font-family="Arial" font-size="8" font-weight="bold">=</text>
  <circle cx="160" cy="184" r="8" fill="#667eea" opacity="0.2"/>
  
  <!-- Impresora 3D -->
  <rect x="200" y="180" width="40" height="28" rx="4" fill="white" opacity="0.9"/>
  <rect x="204" y="184" width="32" height="4" fill="#667eea"/>
  <rect x="208" y="192" width="24" height="12" rx="2" fill="#764ba2" opacity="0.7"/>
  <circle cx="220" cy="176" r="2" fill="#FF5722"/>
  
</svg>
